#!OML:ASF I:\salsa\salsa 7_09\Patient 1\Session 1\dancermale.ASF
:FULLY-SPECIFIED
:DEGREES
2036
root 18.0823 17.5408 -6.56903 192.206 -98.3988 897.115
lowerback -10.765 0.980445 2.26719
upperback -5.04816 0.920274 -0.569076
thorax 0.824348 0.34635 -1.7618
lowerneck -7.88739 0.022299 0.418068
upperneck 19.4192 -0.144702 -0.837738
head 7.24096 -0.225961 -0.368657
rclavicle 3.68249e-014 -2.13694e-015
rhumerus 19.6393 54.505 -84.746
rradius 49.208
rwrist 50.1213
rhand -7.15798 7.16701
rfingers 7.12502
rthumb 18.7189 -21.9523
lclavicle 3.68249e-014 -2.13694e-015
lhumerus 2.02239 -17.8474 111.726
lradius 44.1404
lwrist 64.3812
lhand -6.83949 41.1311
lfingers 7.12502
lthumb 19.0252 -649.779
rfemur -11.5684 6.32066 18.5162
rtibia 7.83958
rfoot -9.99955 -14.4827
rtoes 8.0769
lfemur -9.45359 6.69438 -18.7978
ltibia 8.57333
lfoot -12.0475 18.7128
ltoes 1.56152
2037
root 18.0641 17.5397 -6.57118 191.893 -98.6027 897.435
lowerback -10.7777 0.97124 2.19041
upperback -5.0748 0.914472 -0.569003
thorax 0.802287 0.343718 -1.71918
lowerneck -7.8818 0.142708 0.51058
upperneck 19.773 0.0162146 -0.937346
head 7.35645 -0.156446 -0.404656
rclavicle 1.41883e-014 2.88238e-015
rhumerus 16.7275 53.9984 -86.3461
rradius 51.2887
rwrist 48.2876
rhand -9.52203 8.34718
rfingers 7.12502
rthumb 16.4439 -20.9759
lclavicle 1.41883e-014 2.88238e-015
lhumerus 0.893238 -19.4344 111.115
lradius 44.2652
lwrist 63.8774
lhand -7.24729 41.3126
lfingers 7.12502
lthumb 18.633 -649.56
rfemur -11.4974 6.30174 18.5054
rtibia 7.87078
rfoot -10.1104 -14.6028
rtoes 8.27341
lfemur -9.4027 6.63474 -18.8137
ltibia 8.55346
lfoot -12.0758 18.542
ltoes 1.52941
2038
root 18.0443 17.5382 -6.5753 191.518 -98.8423 897.885
lowerback -10.8637 0.980039 2.07143
upperback -5.12102 0.933828 -0.583484
thorax 0.800493 0.353549 -1.66441
lowerneck -7.77688 0.256194 0.751678
upperneck 19.9659 0.183869 -1.21477
head 7.40238 -0.0866912 -0.522094
rclavicle -2.64818e-014 -2.23633e-015
rhumerus 13.2517 53.2907 -88.294
rradius 53.4885
rwrist 46.5751
rhand -12.2117 8.739
rfingers 7.12502
rthumb 13.853 -20.7797
lclavicle -2.64818e-014 -2.23633e-015
lhumerus -0.203767 -21.435 110.435
lradius 44.075
lwrist 63.207
lhand -6.84989 41.5853
lfingers 7.12502
lthumb 19.0152 -649.324
rfemur -11.4665 6.20411 18.469
rtibia 7.86207
rfoot -10.2081 -14.7134
rtoes 8.71658
lfemur -9.42193 6.60207 -18.8561
ltibia 8.52656
lfoot -12.0854 18.3674
ltoes 1.23837
2039
root 18.0265 17.5383 -6.57951 191.592 -99.1353 897.875
lowerback -10.9153 0.978602 2.03197
upperback -5.17121 0.932556 -0.570369
thorax 0.775579 0.352019 -1.62852
lowerneck -7.56699 0.451269 0.956967
upperneck 19.9823 0.473258 -1.48422
head 7.37423 0.0420609 -0.619713
rclavicle -1.07903e-014 -9.0944e-015
rhumerus 9.33878 52.4213 -90.4973
rradius 55.7499
rwrist 45.1625
rhand -15.102 8.79543
rfingers 7.12502
rthumb 11.0664 -20.8928
lclavicle -1.07903e-014 -9.0944e-015
lhumerus -1.37081 -23.8717 109.654
lradius 43.7322
lwrist 62.3375
lhand -6.17108 42.0064
lfingers 7.12502
lthumb 19.6679 -648.969
rfemur -11.4451 6.07856 18.524
rtibia 7.88201
rfoot -10.3214 -14.8344
rtoes 9.31021
lfemur -9.45162 6.48574 -18.8107
ltibia 8.50042
lfoot -12.0534 18.2431
ltoes 0.871618
2040
root 18.0117 17.5394 -6.58416 192.045 -99.4923 897.479
lowerback -10.9222 0.930862 2.06625
upperback -5.21914 0.863196 -0.493091
thorax 0.725806 0.31604 -1.57591
lowerneck -7.37295 0.7424 1.10163
upperneck 20.0171 0.908666 -1.77155
head 7.35852 0.234679 -0.701079
rclavicle -1.97604e-014 3.77691e-015
rhumerus 5.13092 51.3606 -92.8687
rradius 57.9852
rwrist 43.9845
rhand -17.7895 9.38858
rfingers 7.12502
rthumb 8.47351 -20.4214
lclavicle -1.97604e-014 3.77691e-015
lhumerus -2.77546 -26.3588 108.875
lradius 43.4271
lwrist 61.0225
lhand -5.49574 41.9593
lfingers 7.12502
lthumb 20.317 -649.083
rfemur -11.4561 5.97582 18.6583
rtibia 7.9468
rfoot -10.4852 -14.9648
rtoes 10.1312
lfemur -9.53847 6.34771 -18.6768
ltibia 8.54303
lfoot -12.0643 18.1014
ltoes 0.821905
2041
root 17.9954 17.5392 -6.59125 191.955 -99.8358 897.636
lowerback -10.8895 0.879872 1.94132
upperback -5.3042 0.804486 -0.397696
thorax 0.614362 0.286741 -1.41422
lowerneck -7.23126 1.06076 1.3467
upperneck 20.2007 1.41 -2.28676
head 7.40634 0.443354 -0.869219
rclavicle 3.24609e-014 -2.5842e-015
rhumerus 0.482277 49.758 -95.5129
rradius 60.0326
rwrist 43.2525
rhand -20.4746 10.4773
rfingers 7.12502
rthumb 5.88166 -19.4211
lclavicle 3.24609e-014 -2.5842e-015
lhumerus -4.49219 -29.1408 108.31
lradius 43.0698
lwrist 58.1484
lhand -4.73114 42.414
lfingers 7.12502
lthumb 21.0517 -648.709
rfemur -11.4527 5.96391 18.6835
rtibia 7.97272
rfoot -10.6637 -15.1652
rtoes 10.963
lfemur -9.66202 6.21529 -18.6401
ltibia 8.66846
lfoot -12.1979 17.9573
ltoes 0.900973
